<?xml version="1.0" standalone="no"?>
<!DOCTYPE svg PUBLIC "-//W3C//DTD SVG 20010904//EN"
 "http://www.w3.org/TR/2001/REC-SVG-20010904/DTD/svg10.dtd">
<svg version="1.0" xmlns="http://www.w3.org/2000/svg"
 width="640.000000pt" height="640.000000pt" viewBox="0 0 640.000000 640.000000"
 preserveAspectRatio="xMidYMid meet">
<metadata>
Created by potrace 1.14, written by Peter Selinger 2001-2017
</metadata>
<g transform="translate(0.000000,640.000000) scale(0.100000,-0.100000)"
fill="#000000" stroke="none">
<path d="M0 3200 l0 -3200 3200 0 3200 0 0 3200 0 3200 -3200 0 -3200 0 0
-3200z m3543 2375 c293 -34 544 -108 796 -234 472 -238 841 -609 1077 -1084
70 -142 161 -393 180 -493 14 -81 7 -78 180 -70 111 4 155 3 160 -5 10 -16
-18 -35 -80 -54 -28 -9 -58 -20 -66 -23 -8 -4 69 -9 173 -12 112 -3 188 -9
190 -15 4 -19 -133 -76 -240 -100 -65 -15 -140 -25 -186 -25 -98 0 -101 -19
-6 -37 35 -7 84 -17 109 -22 25 -6 101 -18 170 -26 281 -34 275 -32 246 -64
-36 -40 -259 -69 -409 -53 -43 4 -80 6 -83 3 -5 -6 43 -18 176 -45 176 -37
227 -49 252 -64 37 -21 41 -36 16 -59 -18 -16 -39 -18 -192 -18 -129 0 -190 5
-249 19 -43 10 -81 15 -84 12 -8 -8 -10 -7 87 -46 136 -54 224 -97 243 -118
18 -20 18 -21 -5 -34 -40 -22 -246 -5 -332 28 -24 9 -27 -48 -4 -73 22 -23 17
-43 -11 -43 -14 0 -22 -24 -45 -127 -77 -357 -246 -712 -477 -998 -308 -383
-767 -680 -1244 -805 -494 -129 -1032 -95 -1505 95 -289 116 -562 296 -786
520 -202 201 -339 394 -464 650 -106 216 -177 432 -211 645 -9 53 -19 80 -33
91 -19 16 -19 17 -2 43 10 16 14 35 11 48 -6 18 -11 19 -49 12 -63 -13 -162
-10 -180 5 -15 13 -15 16 5 37 12 13 57 42 101 64 44 23 77 44 75 46 -3 3 -31
-2 -63 -10 -33 -8 -111 -22 -175 -30 -165 -22 -284 -1 -266 47 6 17 54 35 217
82 63 18 125 37 137 42 13 5 -67 8 -195 8 -226 0 -278 7 -324 45 -18 14 -21
23 -13 35 18 30 83 43 268 55 100 7 186 16 192 21 5 5 -1 9 -15 9 -185 0 -470
71 -470 117 0 19 26 22 310 27 181 3 284 10 325 20 l60 14 -50 1 c-158 5 -411
88 -492 163 -47 44 -21 45 197 14 58 -9 119 -15 135 -15 26 0 23 3 -30 28 -65
30 -104 65 -86 76 6 3 67 -3 135 -14 211 -36 240 -37 272 -12 14 11 36 21 48
21 18 0 26 12 45 73 56 172 165 394 278 565 298 450 781 809 1294 962 301 90
655 121 962 85z"/>
<path d="M2960 5514 c-846 -118 -1557 -683 -1864 -1479 -19 -49 -32 -93 -28
-97 4 -4 45 -10 92 -14 l85 -7 -19 22 c-11 11 -17 23 -15 25 2 3 45 1 94 -4
50 -4 90 -7 91 -6 54 138 159 327 252 451 82 110 250 286 352 368 227 183 507
323 781 391 103 26 286 57 342 58 l27 1 0 89 c0 83 -2 89 -22 98 -20 8 -19 9
13 9 l36 1 7 -61 c3 -34 6 -79 6 -100 l0 -39 128 0 c372 -1 752 -120 1078
-338 348 -234 612 -564 764 -957 23 -60 31 -70 54 -73 30 -4 32 -9 9 -34 -15
-17 -12 -18 95 -18 105 0 111 -1 114 -21 2 -14 15 -25 40 -34 21 -7 47 -23 59
-36 l20 -24 -6 39 c-20 123 -100 345 -187 521 -113 228 -255 423 -443 610
-345 344 -777 566 -1265 651 -135 23 -548 28 -690 8z m218 -31 c-2 -10 -10
-18 -18 -18 -8 0 -16 8 -18 18 -2 12 3 17 18 17 15 0 20 -5 18 -17z m134 -63
l3 -80 39 32 c35 28 37 33 20 39 -12 5 -1 8 31 8 50 0 50 0 20 -13 -16 -7 -38
-23 -48 -34 -19 -20 -18 -22 9 -57 15 -21 37 -41 48 -45 16 -7 9 -9 -26 -9
-34 -1 -46 3 -43 12 6 17 -30 61 -44 53 -17 -11 -13 -37 7 -52 15 -12 10 -13
-35 -14 -29 0 -53 5 -53 10 0 6 6 10 14 10 10 0 15 25 19 98 4 81 3 99 -11
110 -14 10 -11 12 16 12 l31 0 3 -80z m-302 50 c0 -11 -7 -20 -15 -20 -8 0
-15 9 -15 20 0 11 7 20 15 20 8 0 15 -9 15 -20z m-140 -4 c0 -6 29 -167 35
-193 3 -13 13 -23 22 -23 30 0 0 -17 -39 -23 -35 -5 -54 6 -26 15 17 6 -19
198 -38 198 -8 0 -14 4 -14 9 0 8 10 12 53 20 4 0 7 -1 7 -3z m971 -33 c50
-10 79 -46 79 -97 0 -57 -13 -90 -46 -121 -32 -29 -47 -30 -122 -9 -47 14 -53
18 -36 25 30 11 73 181 53 206 -13 15 -11 16 15 9 15 -4 41 -10 57 -13z m-816
-70 c10 -79 15 -93 30 -93 8 0 15 -4 15 -10 0 -5 -15 -10 -34 -10 -19 0 -41
-3 -50 -6 -9 -3 -16 -1 -16 5 0 6 7 11 16 11 14 0 16 8 10 46 -3 26 -6 55 -6
65 0 11 -7 19 -15 19 -8 0 -15 5 -15 10 0 6 13 10 29 10 28 0 30 -3 36 -47z
m-255 -32 c17 -32 12 -39 -40 -51 -57 -14 -65 -22 -51 -49 20 -37 67 -33 98 8
6 9 14 13 17 10 12 -12 -47 -59 -75 -59 -41 0 -58 9 -74 41 -21 40 -19 66 10
94 31 32 99 35 115 6z m-336 -78 l29 -78 21 44 c16 33 18 45 9 48 -21 7 -15
20 11 27 13 3 32 9 43 13 16 5 16 3 -3 -18 -21 -23 -44 -62 -44 -73 0 -10 79
-46 102 -46 23 -1 23 -1 -2 -14 -14 -7 -35 -17 -47 -20 -18 -6 -22 -4 -17 8 8
22 -44 46 -56 26 -12 -20 -1 -40 24 -41 16 0 11 -5 -19 -20 -54 -25 -69 -25
-53 0 17 28 -45 188 -76 194 -20 3 -20 4 4 15 14 6 30 11 35 11 6 1 23 -34 39
-76z m1580 47 c14 -5 26 -15 26 -22 0 -8 14 -13 37 -13 31 0 38 -4 38 -20 0
-11 -8 -21 -19 -23 -15 -3 -18 0 -13 17 3 13 0 21 -7 21 -41 0 -90 -86 -66
-115 17 -20 0 -20 -48 1 -34 15 -35 17 -16 24 29 12 61 104 44 125 -15 18 -10
18 24 5z m236 -30 c0 -22 -1 -23 -24 -14 -18 7 -10 34 10 34 8 0 14 -9 14 -20z
m-55 -42 c14 -6 25 -14 25 -18 0 -4 -12 -34 -26 -66 -20 -46 -23 -63 -15 -76
14 -23 9 -23 -42 4 -35 19 -38 23 -20 26 30 4 81 122 53 122 -5 0 -10 5 -10
10 0 13 3 13 35 -2z m-1893 -60 c8 -7 25 -30 37 -50 12 -21 31 -38 44 -40 19
-3 16 -7 -20 -26 -52 -27 -51 -27 -46 2 6 32 -41 106 -67 106 -12 0 -25 -10
-31 -24 -10 -20 -7 -32 13 -68 15 -26 31 -42 41 -42 28 3 19 -10 -24 -33 -37
-20 -40 -21 -34 -3 3 11 -5 40 -20 69 -19 38 -31 51 -48 51 -22 1 -22 1 3 15
14 8 31 14 38 15 6 0 21 9 32 20 23 23 59 26 82 8z m2082 -39 c27 -21 36 -71
16 -84 -6 -4 -31 5 -56 19 -52 29 -64 27 -64 -13 0 -36 17 -51 60 -51 29 -1
32 -2 17 -11 -37 -22 -107 25 -107 72 0 15 12 41 26 58 31 37 69 41 108 10z
m148 -98 c10 -12 24 -21 32 -21 18 0 46 -38 46 -61 0 -9 -13 -36 -29 -60 -22
-32 -27 -47 -19 -56 20 -25 2 -23 -35 4 -40 28 -48 44 -19 36 18 -4 38 17 68
76 16 30 3 51 -31 51 -33 0 -88 -67 -80 -98 6 -24 6 -24 -34 5 -44 30 -52 44
-22 36 26 -7 84 73 76 105 -5 20 -3 22 12 13 10 -5 26 -19 35 -30z m-2443 0
c11 -11 27 -31 36 -45 10 -14 26 -26 37 -26 10 0 16 -4 13 -10 -3 -5 -17 -10
-29 -10 -15 0 -26 -7 -29 -20 -7 -26 -65 -52 -89 -39 -27 15 -21 49 14 86 30
31 31 34 15 50 -14 14 -20 15 -43 4 -20 -9 -24 -15 -16 -23 17 -17 15 -38 -2
-38 -38 0 -30 47 11 72 37 23 59 22 82 -1z m-320 -152 l23 -32 25 32 c34 43
63 40 118 -10 24 -22 49 -38 55 -34 25 16 6 -13 -26 -39 -32 -26 -35 -26 -29
-8 5 16 -3 32 -34 64 -34 36 -43 41 -58 32 -30 -19 -28 -58 7 -97 19 -22 37
-34 46 -30 25 9 14 -11 -22 -41 -35 -29 -35 -29 -29 -5 4 19 -7 37 -58 93 -46
51 -68 68 -80 63 -24 -9 -21 9 5 27 30 21 31 21 57 -15z m2989 -25 c33 -23 44
-48 32 -78 -13 -35 -27 -33 -72 11 -39 38 -50 37 -62 -3 -9 -28 14 -54 54 -64
l35 -8 -33 -1 c-23 -1 -41 7 -57 24 -69 68 23 175 103 119z m-3083 -44 c0 -10
-8 -14 -22 -13 -26 3 -27 0 -13 -28 12 -21 36 -25 43 -6 2 6 8 9 12 5 4 -4 2
-14 -4 -22 -10 -12 -4 -22 31 -55 26 -25 50 -40 61 -37 26 6 21 -6 -19 -45
-34 -32 -35 -33 -29 -9 5 20 -2 32 -33 64 -32 30 -45 37 -63 31 -19 -6 -21 -5
-12 5 9 10 8 20 -4 46 -15 30 -15 35 1 59 18 28 51 31 51 5z m3215 -104 c-7
-7 1 -13 23 -20 25 -9 32 -17 32 -36 0 -16 -6 -25 -15 -25 -8 0 -15 9 -15 20
0 44 -33 45 -80 4 -27 -24 -34 -37 -29 -53 5 -17 -1 -14 -30 13 -41 40 -45 52
-15 44 29 -8 102 63 93 92 -6 18 -4 18 20 -4 18 -17 23 -28 16 -35z m183 -71
l17 -24 -86 -67 c-64 -50 -84 -71 -81 -85 8 -30 -6 -22 -37 22 -27 38 -27 41
-8 35 31 -10 175 100 166 126 -8 26 8 22 29 -7z m-3435 -50 c17 -14 43 -25 58
-25 l29 0 -27 -23 c-14 -12 -31 -32 -37 -45 -7 -12 -22 -29 -35 -37 -46 -30
-79 11 -52 64 9 17 16 36 16 44 0 22 -31 30 -49 12 -13 -13 -14 -19 -2 -36 14
-23 1 -47 -18 -35 -18 12 -12 58 11 83 28 30 69 29 106 -2z m3473 -144 c45
-45 37 -100 -18 -129 -47 -25 -97 -3 -116 50 -10 27 13 77 42 93 39 21 59 18
92 -14z m-3604 -37 c35 -20 47 -23 59 -14 21 18 18 -3 -8 -47 -21 -34 -23 -36
-26 -15 -4 25 -69 72 -101 72 -22 0 -36 -30 -27 -57 4 -10 23 -29 43 -42 29
-19 40 -21 55 -12 23 15 23 7 -4 -40 -23 -41 -39 -52 -31 -21 6 26 -93 88
-113 71 -11 -9 -14 -8 -14 2 1 22 28 52 40 44 6 -3 10 -3 9 2 -6 37 26 83 58
83 9 0 36 -12 60 -26z m3726 -156 c16 -19 22 -43 18 -78 -3 -25 -50 -60 -82
-60 -53 0 -93 66 -70 116 13 29 67 56 96 48 11 -3 28 -15 38 -26z m-3911 -18
c43 -12 98 -71 98 -105 0 -39 -46 -85 -85 -85 -115 0 -188 108 -120 175 26 27
50 30 107 15z m4008 -180 c5 -10 10 -30 10 -44 0 -14 6 -26 13 -26 20 0 -16
-20 -37 -20 -18 0 -18 1 -2 19 18 20 15 51 -6 79 -20 24 -28 11 -28 -48 0 -52
-3 -62 -24 -75 -33 -22 -64 -3 -72 45 -4 19 -12 38 -18 43 -8 5 -6 10 4 17 29
19 39 12 27 -19 -9 -23 -7 -34 6 -55 11 -16 23 -23 33 -19 13 5 15 16 9 58 -5
47 -4 55 16 69 25 17 52 8 69 -24z"/>
<path d="M3810 5378 c-6 -24 -18 -67 -27 -96 -17 -61 -10 -75 33 -70 59 6 98
144 54 188 -31 31 -48 25 -60 -22z"/>
<path d="M2683 5328 c-6 -7 -13 -21 -17 -32 -6 -16 -3 -18 26 -12 39 8 53 20
45 40 -8 19 -41 21 -54 4z"/>
<path d="M4311 5117 c-8 -11 -3 -18 24 -33 31 -16 37 -17 45 -5 22 36 -41 71
-69 38z"/>
<path d="M2054 4955 c-19 -29 -12 -55 14 -55 31 0 47 26 34 55 -15 32 -27 32
-48 0z"/>
<path d="M4702 4842 c-9 -6 -4 -16 17 -36 30 -29 51 -28 51 3 0 33 -37 52 -68
33z"/>
<path d="M1601 4541 c-24 -44 2 -88 35 -60 20 16 17 43 -5 63 -19 17 -20 17
-30 -3z"/>
<path d="M5021 4411 c-35 -32 -35 -34 -21 -62 22 -40 120 -4 120 45 0 52 -52
61 -99 17z"/>
<path d="M5157 4233 c-41 -17 -58 -53 -37 -78 30 -37 120 5 120 55 0 10 -29
40 -38 39 -4 0 -24 -7 -45 -16z"/>
<path d="M1216 4194 c-9 -8 -16 -22 -16 -29 0 -23 59 -74 98 -86 114 -34 140
54 32 109 -52 26 -92 28 -114 6z"/>
<path d="M3073 5159 c-429 -41 -848 -237 -1162 -543 -177 -173 -296 -334 -398
-541 -51 -103 -53 -110 -34 -113 12 -2 101 24 199 57 224 76 274 81 330 34 27
-23 41 -52 78 -161 64 -192 151 -358 270 -517 32 -43 62 -83 65 -88 4 -6 15
-7 25 -3 13 5 14 10 6 18 -8 8 -6 17 8 36 11 13 22 40 26 61 4 20 15 54 25 75
23 48 23 56 3 56 -12 0 -8 9 16 36 26 30 50 73 50 89 0 2 -8 5 -17 7 -14 3
-11 8 14 23 18 10 49 43 69 72 32 46 36 59 31 94 -3 22 -12 48 -21 58 -9 10
-16 25 -16 33 0 9 -7 29 -15 44 -8 16 -15 36 -15 45 0 9 -7 33 -15 53 -16 39
-49 195 -42 202 2 2 21 -21 42 -51 36 -53 45 -59 73 -56 6 1 12 -2 12 -7 0
-23 75 -92 135 -122 51 -26 81 -34 130 -37 75 -3 79 1 105 106 9 36 21 66 27
68 6 2 13 -18 16 -45 9 -73 46 -133 98 -158 24 -12 53 -31 63 -43 11 -12 31
-21 48 -21 69 0 146 -69 122 -108 -14 -22 -34 -27 -34 -8 0 21 -3 20 -46 -9
-21 -14 -43 -40 -50 -58 -7 -18 -24 -63 -38 -100 -14 -37 -26 -81 -26 -98 0
-35 24 -95 47 -122 14 -15 15 -20 4 -26 -24 -15 22 -146 63 -180 21 -17 12
-31 -16 -23 -15 4 -19 2 -13 -7 9 -16 104 -61 128 -61 21 0 23 -18 2 -26 -23
-9 -18 -21 17 -38 49 -25 99 -20 146 13 22 17 67 43 99 59 229 116 513 438
658 747 60 126 89 161 141 171 52 10 111 -10 277 -90 162 -79 240 -106 306
-106 l41 0 -21 53 c-325 833 -1150 1342 -2036 1256z"/>
<path d="M2605 4170 c4 -8 19 -29 31 -47 29 -39 30 -47 4 -33 -28 15 -25 0 10
-48 17 -23 23 -39 15 -36 -20 8 -19 -11 1 -41 9 -13 13 -29 9 -35 -3 -5 1 -13
10 -16 10 -4 13 -13 10 -25 -4 -11 -2 -19 3 -19 5 0 12 -14 16 -31 5 -27 0
-38 -44 -87 -28 -31 -48 -62 -46 -69 3 -7 0 -16 -7 -20 -20 -13 -77 -113 -64
-113 7 1 23 7 37 15 37 21 42 18 25 -15 -18 -35 -19 -48 -3 -32 17 17 41 15
34 -3 -3 -9 0 -15 10 -15 8 0 12 -5 9 -10 -4 -7 -28 -8 -64 -4 -64 7 -65 6
-90 -91 -15 -54 -14 -57 9 -50 19 6 20 2 20 -56 l0 -62 23 21 c32 30 37 28 37
-13 0 -24 5 -35 15 -35 9 0 15 -9 15 -23 0 -13 6 -31 13 -41 12 -17 14 -16 25
8 15 34 42 34 42 0 0 -14 5 -34 10 -45 7 -12 7 -19 1 -19 -6 0 -17 12 -25 28
l-15 27 -7 -32 c-3 -18 -10 -33 -14 -33 -12 0 -50 69 -50 91 0 11 -4 17 -10
14 -5 -3 -15 6 -22 20 l-12 26 -17 -23 c-24 -32 -32 -18 -33 56 -1 59 -2 63
-19 54 -22 -11 -56 -83 -57 -117 0 -20 2 -22 16 -10 15 12 15 7 9 -54 -8 -71
-2 -84 18 -39 11 25 12 22 15 -40 2 -38 6 -68 9 -68 4 0 17 10 30 22 l23 21 0
-36 c0 -20 4 -38 9 -41 5 -4 12 -24 16 -47 5 -29 11 -39 21 -35 48 20 47 20
36 -1 -6 -11 -18 -26 -27 -33 -22 -18 -33 -5 -60 76 -21 64 -23 66 -36 46 -25
-40 -48 -18 -49 44 0 12 -6 24 -14 27 -9 4 -16 23 -18 49 l-3 43 -14 -39 c-10
-29 -10 -40 -2 -46 8 -5 10 -24 6 -61 -5 -39 -4 -50 4 -39 9 12 11 9 11 -13 0
-16 -5 -38 -11 -49 l-12 -21 36 20 35 21 5 -25 c3 -15 -1 -27 -9 -30 -10 -3
-14 -23 -14 -60 0 -46 2 -53 14 -44 7 6 17 26 21 44 l7 32 20 -52 c21 -53 33
-58 48 -19 8 21 8 20 18 -5 6 -15 22 -39 36 -54 15 -16 29 -39 32 -52 4 -13
10 -23 14 -23 8 0 24 37 36 85 l7 30 7 -35 c16 -81 57 -143 77 -118 13 16 30
71 39 123 l7 40 9 -40 c5 -21 12 -42 16 -45 4 -3 20 -24 35 -48 16 -24 34 -42
40 -39 21 6 66 107 70 156 l3 46 14 -32 c8 -18 20 -33 26 -33 6 0 19 -11 28
-25 21 -33 55 -50 69 -36 7 7 7 24 0 56 -9 38 -8 45 3 41 10 -4 14 3 14 24 0
28 1 29 29 17 16 -7 49 -11 74 -9 l45 4 -19 45 c-23 54 -23 57 -3 49 21 -8 65
4 58 15 -3 5 15 9 40 9 49 0 65 12 46 35 -10 12 -9 16 3 21 9 3 21 3 27 -1 16
-10 118 14 123 29 3 7 24 16 47 20 30 5 44 12 47 26 4 14 18 21 51 26 29 4 54
16 67 30 12 13 27 24 32 24 24 0 75 34 83 56 5 13 18 24 28 24 23 0 64 29 57
41 -4 5 5 14 19 20 14 7 32 22 41 35 8 12 25 24 37 26 12 2 28 14 34 27 7 13
26 30 43 37 17 7 31 20 31 28 0 9 16 23 36 31 24 10 34 20 31 29 -4 9 7 22 29
35 19 11 33 26 32 32 -2 6 11 16 29 23 38 13 44 19 47 43 2 11 13 19 27 21 61
7 103 42 67 55 -7 2 6 7 29 11 48 9 75 32 49 42 -34 13 -14 22 38 17 30 -3 63
-2 73 2 16 6 14 9 -12 22 l-30 14 40 -6 c22 -3 72 -7 110 -10 70 -5 70 -5 30
9 -56 20 -112 45 -100 46 6 0 42 -9 80 -19 39 -10 95 -22 125 -26 l55 -6 -52
25 c-29 14 -53 27 -53 29 0 2 46 -7 103 -20 109 -24 317 -32 347 -13 11 7 -2
10 -42 10 -91 0 -211 21 -237 41 -13 11 -35 19 -48 19 -42 0 -173 50 -303 116
-142 72 -181 82 -231 61 -31 -13 -40 -27 -83 -123 -139 -317 -439 -664 -683
-789 -32 -16 -79 -45 -105 -63 l-48 -34 -102 8 c-97 6 -101 6 -93 -12 4 -10
10 -31 13 -46 4 -28 4 -28 -49 -28 -30 0 -71 4 -91 9 l-38 9 0 -42 c0 -23 -6
-50 -13 -60 -12 -16 -18 -17 -55 -5 -32 9 -45 9 -56 0 -11 -9 -15 -6 -19 21
-5 38 -3 43 15 32 7 -5 15 -9 18 -9 3 0 20 -6 38 -14 18 -8 36 -11 39 -7 4 4
7 31 7 61 0 55 4 63 22 46 5 -5 42 -12 82 -15 84 -8 89 -2 46 71 l-26 44 31
-15 c32 -17 81 -21 81 -8 0 5 -11 19 -25 32 -14 13 -25 29 -25 36 0 7 -9 15
-19 19 -22 7 -91 80 -91 96 0 7 10 5 25 -5 30 -20 31 -16 5 32 -11 20 -27 55
-36 77 -14 35 -17 38 -24 20 -6 -15 -9 -8 -9 27 -1 37 2 46 13 42 11 -4 10 4
-5 33 -28 53 -21 132 20 219 17 36 31 70 31 74 0 5 -35 11 -77 15 -103 8 -117
14 -73 29 20 7 45 27 58 47 l23 34 -27 9 c-18 6 -33 5 -46 -3 -36 -22 -88 -8
-88 25 0 7 9 10 23 8 29 -6 -60 31 -96 40 -25 6 -28 4 -22 -12 4 -15 0 -21
-20 -26 -14 -4 -30 -17 -35 -30 -12 -32 -25 -39 -39 -22 -9 11 -4 20 26 45 26
22 32 31 20 31 -27 0 -20 16 13 30 18 7 52 10 81 8 41 -4 48 -3 33 6 -11 6
-53 11 -94 12 -85 1 -114 10 -182 60 -26 20 -48 31 -48 26 0 -5 21 -33 46 -61
44 -49 51 -70 12 -34 -27 24 -22 -1 7 -35 31 -37 31 -45 3 -36 -20 6 -21 5 -9
-10 8 -9 12 -18 10 -19 -2 -1 -15 -11 -28 -22 l-24 -20 5 35 c3 19 2 45 -3 58
-5 13 -5 22 1 22 16 0 -69 164 -102 195 -17 17 -27 23 -23 15z m259 -785 c-4
-8 -2 -15 4 -15 5 0 13 7 16 16 4 9 11 12 18 7 7 -4 18 -8 23 -8 6 0 12 -15
15 -33 l5 -34 28 22 c37 30 34 8 -4 -24 -40 -34 -52 -33 -47 4 l5 30 -49 -5
c-54 -5 -52 -6 -36 30 12 26 31 36 22 10z m216 -40 c7 -8 16 -12 21 -9 5 3 9
-2 9 -10 0 -19 -21 -21 -38 -4 -9 9 -15 9 -24 0 -15 -15 -28 -15 -28 -1 0 11
29 38 41 39 4 0 12 -7 19 -15z m119 -184 c1 -8 -5 -11 -14 -7 -11 4 -15 -1
-15 -19 0 -30 -7 -31 -37 -6 -28 23 -29 34 -4 26 16 -5 18 -2 14 15 -4 15 -1
20 16 20 11 0 21 6 22 13 1 15 17 -22 18 -42z m-184 -176 c-10 -19 -21 -35
-25 -35 -10 0 -20 26 -19 48 0 11 2 12 6 5 8 -20 19 -15 33 15 7 15 15 22 17
15 2 -7 -3 -28 -12 -48z m250 45 c3 -5 2 -10 -4 -10 -5 0 -13 5 -16 10 -3 6
-2 10 4 10 5 0 13 -4 16 -10z m-591 -42 c18 -40 37 -110 31 -116 -9 -9 -25 11
-25 31 -1 12 -7 33 -15 47 -13 24 -20 70 -10 70 2 0 11 -15 19 -32z m116 20
c1 -7 17 -31 36 -53 l35 -40 29 35 c23 27 30 31 30 17 0 -11 -16 -35 -36 -55
l-36 -36 -14 27 c-8 14 -26 38 -39 51 -25 25 -34 66 -15 66 6 0 10 -6 10 -12z
m67 -10 c-3 -8 -6 -5 -6 6 -1 11 2 17 5 13 3 -3 4 -12 1 -19z m-239 -8 c-14
-22 -24 -19 -15 5 4 8 11 15 17 15 6 0 6 -7 -2 -20z m517 -31 c11 -17 -1 -21
-15 -4 -8 9 -8 15 -2 15 6 0 14 -5 17 -11z m-331 -208 c-6 -6 -24 48 -24 73 0
47 15 36 22 -16 3 -29 5 -55 2 -57z m446 69 c0 -5 -4 -10 -10 -10 -5 0 -10 5
-10 10 0 6 5 10 10 10 6 0 10 -4 10 -10z m-690 -30 c0 -5 -4 -10 -10 -10 -5 0
-10 5 -10 10 0 6 5 10 10 10 6 0 10 -4 10 -10z m111 -53 c-8 -8 -11 -5 -11 9
0 27 14 41 18 19 2 -9 -1 -22 -7 -28z m439 -7 c0 -13 -1 -13 -10 0 -5 8 -10
22 -10 30 0 13 1 13 10 0 5 -8 10 -22 10 -30z m-320 -24 c0 -8 -4 -18 -10 -21
-5 -3 -10 3 -10 14 0 12 5 21 10 21 6 0 10 -6 10 -14z m150 -8 c0 -18 -2 -20
-9 -8 -6 8 -7 18 -5 22 9 14 14 9 14 -14z"/>
<path d="M3067 4070 c-10 -12 -15 -26 -11 -32 5 -7 2 -8 -5 -3 -9 5 -12 2 -9
-11 2 -14 13 -20 41 -22 37 -3 38 -2 26 19 -6 13 -15 33 -18 46 l-6 23 -18
-20z"/>
<path d="M1850 4053 c-8 -3 -58 -22 -110 -43 -105 -42 -264 -80 -335 -80 -26
0 -44 -4 -40 -9 9 -15 -81 -24 -184 -18 l-96 5 45 -15 c49 -17 326 -25 390
-10 46 10 28 -6 -30 -27 l-45 -17 95 5 c52 3 111 8 130 12 19 4 31 3 27 -2 -4
-4 -38 -13 -75 -20 l-67 -11 48 -8 c27 -4 73 -5 103 -1 34 4 54 2 54 -4 0 -5
-12 -10 -27 -10 -57 0 -5 -21 68 -27 60 -5 69 -8 51 -16 -12 -6 -22 -14 -22
-18 0 -12 43 -39 62 -39 21 0 24 -16 6 -23 -19 -8 30 -44 68 -51 23 -5 30 -11
30 -28 -1 -15 10 -28 35 -42 20 -12 34 -26 32 -32 -2 -7 10 -22 27 -34 21 -15
28 -25 20 -30 -8 -5 -3 -14 16 -29 14 -11 31 -21 35 -21 5 0 9 -9 9 -20 0 -13
12 -26 34 -36 24 -12 32 -22 29 -35 -4 -13 4 -23 31 -36 20 -9 36 -22 36 -29
0 -7 12 -22 27 -34 14 -11 31 -31 37 -43 21 -40 43 -33 50 17 7 44 5 47 -56
128 -130 170 -245 389 -304 575 -44 143 -61 163 -136 162 -29 0 -60 -3 -68 -6z"/>
<path d="M3149 3949 c45 -17 86 -28 89 -24 13 12 -26 35 -77 45 -94 18 -99 10
-12 -21z"/>
<path d="M3264 3895 c-4 -8 -12 -15 -19 -15 -7 0 -22 -16 -34 -35 -11 -19 -19
-35 -17 -35 2 0 29 12 61 26 63 29 120 28 142 -3 16 -21 31 -8 17 15 -13 22
-92 62 -121 62 -13 0 -26 -7 -29 -15z"/>
<path d="M546 3871 c14 -14 101 -41 199 -62 63 -13 125 -18 210 -17 l120 1
-151 7 c-83 4 -159 12 -170 18 -15 9 -7 12 46 13 65 2 65 2 -25 10 -49 5 -120
16 -157 24 -78 17 -85 18 -72 6z"/>
<path d="M955 3871 c-19 -8 -19 -8 2 -19 62 -33 413 -58 453 -32 10 7 -34 10
-135 11 -82 1 -141 4 -130 6 16 4 10 9 -25 24 -46 18 -130 24 -165 10z"/>
<path d="M3290 3827 c-19 -7 -44 -18 -55 -24 -19 -11 -18 -12 8 -18 31 -8 77
8 103 36 16 18 16 19 -2 19 -10 -1 -35 -7 -54 -13z"/>
<path d="M340 3781 c114 -71 328 -117 508 -108 114 5 184 19 152 30 -8 3 -96
8 -195 11 -104 3 -201 11 -230 19 -45 12 -30 13 158 9 149 -3 207 -1 207 7 0
8 -42 11 -137 11 -136 1 -161 3 -377 34 -140 20 -139 21 -86 -13z"/>
<path d="M1598 3770 c13 -10 43 -22 67 -26 34 -5 45 -11 45 -24 0 -21 35 -51
80 -70 31 -13 37 -24 20 -35 -20 -13 -9 -26 41 -50 43 -20 48 -24 30 -30 -33
-10 -25 -25 29 -47 40 -16 48 -24 39 -34 -13 -16 24 -55 71 -74 22 -9 28 -16
20 -25 -11 -14 7 -33 54 -57 29 -15 29 -16 8 -22 -30 -10 -19 -24 37 -50 32
-14 46 -27 46 -41 0 -13 16 -27 52 -45 37 -19 49 -30 42 -37 -12 -12 31 -50
68 -59 30 -8 41 2 49 43 6 28 3 33 -31 49 -20 9 -40 27 -45 38 -4 12 -17 30
-29 40 -11 11 -21 24 -21 31 0 6 -16 19 -35 28 -20 10 -37 26 -41 40 -3 14
-16 29 -30 36 -13 6 -24 17 -24 25 0 7 -16 26 -35 40 -19 15 -35 33 -35 40 0
7 -9 21 -20 31 -11 10 -20 24 -20 32 0 7 -8 16 -17 20 -25 9 -63 44 -63 59 0
7 -16 18 -36 24 -23 8 -43 24 -56 46 -11 18 -28 36 -38 39 -11 3 -22 14 -25
25 -4 12 -19 21 -48 25 -23 4 -52 13 -64 21 -12 8 -42 14 -65 14 l-43 -1 23
-19z"/>
<path d="M1038 3767 c-37 -7 -70 -16 -73 -19 -4 -3 15 -14 42 -24 72 -28 294
-26 378 4 33 12 49 19 35 17 -70 -15 -248 -28 -275 -20 -23 6 0 11 104 21 73
7 136 15 139 18 3 3 -26 6 -65 6 -38 0 -103 2 -144 5 -41 2 -104 -1 -141 -8z"/>
<path d="M5352 3736 c-24 -6 -40 -15 -35 -20 8 -9 -187 -2 -262 9 -27 4 -35 3
-25 -3 56 -36 470 -46 470 -11 0 5 -3 9 -7 9 -5 0 -28 6 -53 13 -34 11 -55 11
-88 3z"/>
<path d="M1407 3699 c-31 -10 -113 -22 -180 -27 -68 -5 -134 -15 -147 -22
l-24 -13 24 -11 c14 -5 79 -10 145 -10 99 1 131 5 184 24 68 24 135 59 127 67
-2 3 -15 -2 -28 -10 -31 -20 -150 -54 -218 -62 -74 -8 -48 7 57 33 45 12 94
28 110 36 36 20 22 18 -50 -5z"/>
<path d="M4745 3710 c-11 -5 -37 -9 -57 -9 -37 -1 -50 -10 -123 -80 -16 -17
-46 -33 -65 -36 -23 -4 -39 -14 -45 -28 -6 -12 -23 -28 -40 -35 -16 -8 -48
-36 -69 -63 -21 -27 -46 -51 -56 -54 -9 -3 -26 -19 -38 -35 -13 -17 -29 -30
-38 -30 -8 0 -19 -11 -26 -24 -6 -14 -24 -30 -41 -37 -17 -7 -53 -36 -81 -65
-28 -29 -63 -56 -78 -59 -16 -4 -28 -13 -28 -21 0 -16 -57 -54 -80 -54 -8 0
-23 -11 -35 -25 -13 -16 -34 -28 -60 -32 -24 -4 -47 -15 -58 -29 -9 -12 -32
-26 -50 -29 -17 -4 -40 -14 -50 -23 -10 -9 -43 -18 -77 -20 -49 -4 -60 -8 -60
-22 0 -24 -18 -36 -60 -43 -85 -14 -100 -19 -100 -36 0 -10 7 -26 16 -37 8
-10 13 -13 9 -6 -4 9 7 12 42 12 61 0 94 17 113 57 l15 31 66 -5 c72 -6 139
10 139 33 0 10 12 14 38 14 43 0 107 29 107 49 0 7 24 22 53 33 37 14 52 25
52 38 0 14 11 22 38 29 51 14 82 38 64 49 -9 6 6 16 48 31 51 19 61 26 57 42
-4 13 0 19 11 19 10 0 37 10 62 21 38 17 42 22 28 30 -26 14 -22 26 10 32 15
3 36 13 47 21 17 13 18 17 5 25 -12 8 -11 11 5 16 11 3 36 14 55 23 29 15 34
22 32 45 -2 24 1 27 25 27 33 0 76 21 75 35 0 6 -11 12 -23 15 -17 4 -9 10 35
23 51 17 57 21 52 41 -5 19 2 26 47 47 29 13 56 34 62 47 7 16 18 22 43 22 32
0 102 24 102 34 0 9 -93 6 -115 -4z"/>
<path d="M1639 3654 c-40 -43 -156 -121 -210 -140 -48 -18 -119 -74 -119 -94
0 -54 292 98 352 183 18 26 12 22 -36 -20 -55 -48 -192 -130 -202 -121 -2 3
31 28 73 56 77 50 182 147 172 157 -3 3 -16 -7 -30 -21z"/>
<path d="M5075 3660 c33 -11 95 -26 138 -34 43 -8 81 -17 84 -20 18 -17 -118
2 -277 39 -59 15 11 -16 94 -40 71 -20 110 -25 201 -25 112 0 145 5 145 20 0
16 -168 53 -275 60 -60 5 -123 11 -140 14 -16 3 -3 -3 30 -14z"/>
<path d="M5690 3670 c-108 -4 -124 -6 -62 -8 52 -1 81 -6 77 -12 -7 -11 70 -6
153 11 61 12 68 20 15 17 -21 -1 -103 -5 -183 -8z"/>
<path d="M1463 3629 c-36 -16 -101 -35 -152 -43 -103 -17 -154 -39 -149 -64 5
-24 103 -28 176 -7 66 20 157 64 192 94 21 18 14 17 -35 -7 -62 -31 -157 -62
-184 -62 -9 1 21 16 67 35 77 31 152 71 152 81 0 5 6 7 -67 -27z"/>
<path d="M930 3624 c-121 -33 -338 -54 -565 -54 -117 0 -195 -4 -195 -10 0
-14 124 -48 221 -61 188 -26 518 7 700 70 l54 18 -42 7 c-30 6 -64 2 -119 -14
-113 -31 -264 -50 -384 -48 l-105 1 105 8 c186 15 415 64 441 95 16 19 -7 17
-111 -12z"/>
<path d="M5453 3643 c9 -2 25 -2 35 0 9 3 1 5 -18 5 -19 0 -27 -2 -17 -5z"/>
<path d="M4904 3611 c22 -25 103 -67 173 -92 67 -23 230 -37 258 -22 17 10 15
12 -14 27 -18 10 -72 24 -121 32 -76 12 -118 24 -235 69 -15 6 -14 3 5 -11 14
-10 63 -33 110 -51 53 -20 75 -32 59 -33 -35 0 -129 33 -196 70 -38 20 -50 24
-39 11z"/>
<path d="M4767 3586 c17 -33 128 -147 183 -189 19 -15 30 -27 24 -27 -21 0
-107 64 -172 129 -65 65 -65 65 -31 17 54 -77 206 -188 277 -202 29 -6 32 -4
26 12 -12 33 -57 75 -109 101 -27 14 -87 62 -132 107 -54 54 -76 72 -66 52z"/>
<path d="M1694 3579 c-41 -43 -141 -114 -202 -142 -100 -46 -109 -71 -24 -65
104 8 233 91 277 179 16 32 15 32 -31 -15 -57 -56 -118 -100 -154 -110 -24 -7
-24 -7 -5 9 11 8 42 32 68 53 48 37 113 110 105 118 -3 2 -18 -10 -34 -27z"/>
<path d="M5506 3591 c22 -10 243 -39 339 -45 33 -2 -23 -2 -125 0 -102 2 -214
7 -250 10 -92 9 -67 -10 47 -35 130 -29 322 -29 447 0 74 18 166 52 166 62 0
1 -100 2 -222 2 -123 0 -268 3 -323 7 -57 4 -91 3 -79 -1z"/>
<path d="M4900 3564 c0 -6 86 -62 139 -90 30 -15 50 -29 44 -31 -15 -5 -94 31
-160 73 -55 35 -57 35 -31 7 62 -65 230 -143 309 -143 36 0 40 2 37 22 -4 28
-49 54 -124 73 -33 8 -94 32 -136 54 -43 21 -78 37 -78 35z"/>
<path d="M4680 3555 c0 -18 94 -137 135 -171 25 -20 43 -39 41 -42 -14 -14
-137 94 -180 158 -10 15 -16 19 -16 10 0 -25 66 -115 107 -147 55 -44 116 -72
169 -80 45 -6 46 -5 35 15 -6 12 -32 33 -57 48 -61 36 -145 108 -194 168 -22
26 -40 45 -40 41z"/>
<path d="M1045 3508 c-160 -52 -335 -80 -781 -124 -61 -6 -98 -28 -74 -43 26
-18 122 -26 275 -24 230 2 419 38 599 114 85 35 103 46 93 55 -4 4 -49 -7 -99
-24 -192 -64 -358 -99 -523 -108 -102 -6 -80 11 25 20 144 12 546 116 565 146
9 14 -11 11 -80 -12z"/>
<path d="M1726 3471 c-27 -28 -76 -64 -109 -82 -55 -29 -59 -33 -42 -45 55
-41 150 10 216 114 38 60 37 77 0 26 -16 -21 -44 -48 -63 -58 l-33 -19 26 29
c28 31 64 84 57 84 -2 0 -26 -22 -52 -49z"/>
<path d="M5370 3504 c0 -17 74 -52 189 -90 83 -28 278 -73 320 -75 18 -1 20
-3 8 -6 -56 -15 -307 41 -464 103 -74 29 -97 34 -119 27 -27 -9 -25 -11 46
-40 216 -90 422 -134 625 -136 82 0 162 5 193 12 88 22 68 32 -93 46 -213 20
-489 82 -636 145 -55 23 -69 26 -69 14z"/>
<path d="M1240 3471 c-19 -3 -56 -18 -81 -34 -108 -64 -314 -142 -574 -216
-184 -52 -218 -64 -222 -77 -9 -27 166 -32 285 -8 223 45 629 224 645 284 3
12 2 20 -1 18 -4 -2 -61 -31 -127 -64 -66 -34 -174 -82 -240 -106 -121 -45
-292 -94 -301 -86 -2 3 68 29 156 58 147 48 440 181 495 224 21 16 20 17 -35
7z"/>
<path d="M1831 3446 c-21 -33 -78 -89 -117 -113 -16 -10 -17 -13 -4 -22 40
-28 131 -2 174 49 27 32 30 50 17 85 -8 19 -8 19 -15 -3 -8 -25 -54 -82 -66
-82 -4 0 5 24 21 54 33 60 24 87 -10 32z"/>
<path d="M4630 3459 c0 -9 16 -37 35 -63 20 -25 32 -46 27 -46 -9 0 -61 53
-86 90 l-18 25 7 -25 c20 -68 70 -132 126 -160 44 -23 62 -25 90 -9 19 10 18
12 -23 39 -44 28 -112 95 -142 140 -11 17 -16 19 -16 9z"/>
<path d="M4537 3432 c-5 -6 5 -39 28 -97 8 -20 8 -20 -13 -1 -12 10 -27 34
-34 52 -10 30 -13 31 -24 16 -8 -9 -14 -25 -14 -34 0 -22 55 -85 91 -104 29
-15 91 -19 103 -7 3 4 -14 27 -38 52 -24 25 -54 65 -66 89 -23 44 -26 47 -33
34z"/>
<path d="M1350 3380 c-115 -65 -290 -158 -464 -245 -110 -55 -201 -105 -204
-112 -6 -22 46 -25 128 -9 164 34 361 121 533 236 58 39 109 74 111 79 3 5 -7
11 -23 13 -22 3 -49 -8 -108 -44 -132 -82 -393 -210 -393 -193 0 2 37 22 83
45 87 45 316 179 356 209 37 28 22 45 -19 21z"/>
<path d="M5270 3395 c0 -8 116 -64 228 -109 129 -53 209 -79 333 -111 107 -27
91 -32 -30 -10 -116 22 -307 88 -440 151 -63 30 -118 54 -124 54 -39 0 141
-109 253 -153 260 -102 677 -161 698 -99 6 18 -37 31 -218 68 -221 45 -387 93
-551 159 -134 55 -149 60 -149 50z"/>
<path d="M1920 3345 c-18 -19 -55 -42 -81 -50 -35 -12 -46 -20 -42 -31 21 -56
147 -39 193 26 26 37 14 44 -25 15 -47 -36 -64 -31 -27 8 18 18 32 38 32 44 0
25 -18 21 -50 -12z"/>
<path d="M5110 3367 c0 -3 31 -28 70 -56 140 -102 306 -197 470 -268 115 -50
130 -58 85 -47 -110 27 -340 140 -513 253 -97 64 -122 77 -122 62 0 -34 210
-176 396 -268 145 -73 272 -114 385 -128 63 -7 112 2 106 19 -2 6 -90 48 -196
92 -271 116 -385 174 -513 260 -96 65 -168 100 -168 81z"/>
<path d="M4420 3333 c0 -9 12 -31 26 -50 35 -46 25 -52 -20 -12 -40 34 -57 33
-37 -4 28 -52 125 -91 170 -68 32 17 26 35 -19 55 -22 9 -55 35 -73 57 -37 43
-47 48 -47 22z"/>
<path d="M1464 3277 c-79 -66 -204 -141 -319 -190 -49 -21 -100 -43 -113 -49
-32 -16 -142 -117 -142 -130 0 -15 112 -4 175 17 79 26 225 101 286 147 116
87 253 228 230 236 -6 2 -46 -25 -89 -60 -98 -82 -188 -145 -279 -196 -106
-60 -131 -61 -34 -2 94 57 240 165 316 234 69 62 44 56 -31 -7z"/>
<path d="M1598 3241 c-72 -88 -180 -177 -284 -236 -89 -50 -128 -81 -119 -96
16 -26 119 10 248 88 88 53 222 172 268 239 35 52 21 70 -18 22 -78 -97 -263
-258 -296 -258 -4 0 18 22 50 48 76 63 233 231 233 248 0 30 -28 11 -82 -55z"/>
<path d="M5000 3287 c0 -17 153 -141 309 -250 68 -48 120 -87 115 -87 -24 0
-222 131 -366 241 -64 49 -146 85 -136 60 2 -5 40 -43 86 -84 183 -165 451
-313 603 -333 93 -12 64 14 -218 199 -90 58 -212 142 -272 187 -60 44 -112 80
-115 80 -3 0 -6 -6 -6 -13z"/>
<path d="M1968 3223 c-74 -38 -79 -56 -22 -72 46 -13 98 3 124 37 28 34 10 40
-36 12 -45 -29 -52 -21 -14 15 29 28 38 46 23 44 -5 -1 -38 -17 -75 -36z"/>
<path d="M4849 3243 c19 -37 238 -249 322 -313 44 -33 76 -60 70 -60 -29 0
-184 122 -306 242 -77 76 -141 138 -142 138 -24 0 62 -124 151 -218 117 -123
253 -215 385 -261 120 -42 131 -21 39 75 -40 42 -88 78 -132 102 -104 54 -218
139 -314 234 -47 45 -80 73 -73 61z"/>
<path d="M4700 3238 c0 -24 108 -173 187 -257 60 -66 70 -80 44 -65 -18 10
-58 46 -89 79 -61 66 -172 211 -172 226 0 5 -7 9 -16 9 -20 0 -15 -15 29 -89
63 -105 245 -268 374 -335 33 -17 83 -22 83 -8 0 11 -65 70 -132 121 -81 61
-186 174 -238 258 -41 67 -70 91 -70 61z"/>
<path d="M4330 3231 c0 -5 12 -23 26 -40 32 -38 17 -40 -26 -5 -17 15 -33 24
-36 21 -12 -12 9 -47 40 -67 41 -25 87 -26 116 -2 l23 18 -56 32 c-30 17 -58
36 -62 42 -8 12 -25 13 -25 1z"/>
<path d="M1689 3135 c-83 -81 -147 -129 -284 -212 -17 -11 -30 -27 -30 -38 0
-56 177 14 321 129 71 55 174 162 174 180 0 20 -32 -3 -109 -77 -75 -71 -187
-157 -206 -157 -3 0 22 23 57 52 80 66 199 189 195 202 -8 23 -28 10 -118 -79z"/>
<path d="M4570 3180 c-20 -12 59 -126 155 -225 40 -41 63 -70 52 -63 -37 19
-156 139 -205 206 -25 34 -52 62 -59 62 -20 0 -16 -10 22 -67 109 -162 372
-360 417 -315 18 18 3 38 -74 95 -86 64 -175 155 -245 249 -36 49 -53 64 -63
58z"/>
<path d="M2080 3149 c-24 -16 -52 -29 -62 -29 -27 0 -22 -29 7 -36 35 -9 85 3
115 26 33 25 17 39 -19 17 -46 -27 -58 -20 -21 12 47 39 35 45 -20 10z"/>
<path d="M4230 3173 c0 -4 14 -22 32 -40 40 -42 33 -50 -16 -17 -41 28 -59 25
-32 -5 25 -27 68 -43 107 -39 44 4 47 21 5 36 -19 7 -46 26 -60 42 -24 30 -36
37 -36 23z"/>
<path d="M1835 3073 c-85 -77 -195 -155 -270 -189 -62 -28 -70 -44 -24 -44 79
0 254 94 352 190 95 93 84 107 -13 17 -45 -41 -109 -89 -143 -107 -67 -35 -66
-32 3 20 76 58 150 123 165 147 29 44 -1 29 -70 -34z"/>
<path d="M4136 3111 c-9 -14 9 -46 36 -65 17 -12 18 -16 7 -16 -9 0 -28 9 -42
20 -30 24 -47 26 -47 6 0 -21 47 -54 85 -62 35 -6 85 12 92 33 3 7 -13 19 -34
28 -21 9 -50 27 -64 41 -17 16 -29 22 -33 15z"/>
<path d="M2182 3090 c-13 -11 -42 -25 -64 -30 -38 -11 -39 -12 -25 -33 19 -30
67 -40 113 -25 38 13 64 41 51 54 -4 5 -21 0 -36 -9 -16 -9 -37 -17 -48 -17
-13 0 -9 6 15 20 19 12 32 28 32 40 0 25 -8 25 -38 0z"/>
<path d="M4457 3069 c10 -18 57 -72 104 -120 48 -49 84 -89 80 -89 -17 0 -143
114 -186 169 -53 68 -76 81 -43 25 57 -97 222 -235 330 -276 74 -28 98 -4 31
31 -60 31 -164 122 -239 209 -72 84 -111 109 -77 51z"/>
<path d="M1930 3000 c-41 -33 -115 -83 -165 -113 -62 -38 -90 -60 -90 -73 0
-66 187 17 308 136 89 90 106 130 19 47 -56 -52 -146 -117 -164 -117 -5 0 17
21 49 46 102 82 153 135 126 133 -5 0 -42 -27 -83 -59z"/>
<path d="M4330 3042 c0 -14 40 -62 114 -141 52 -54 56 -61 27 -45 -18 11 -67
55 -109 99 -70 75 -74 77 -51 35 32 -60 153 -180 220 -219 63 -36 119 -42 119
-12 0 12 -23 36 -63 64 -34 24 -106 86 -160 137 -53 50 -97 87 -97 82z"/>
<path d="M4020 3035 c0 -2 14 -20 31 -40 34 -39 19 -50 -20 -14 -26 24 -37 20
-22 -9 6 -11 31 -28 56 -37 42 -16 46 -16 70 -1 32 21 32 32 -2 41 -16 3 -45
19 -65 36 -35 28 -48 34 -48 24z"/>
<path d="M2275 2994 c-22 -13 -50 -24 -62 -24 -12 0 -25 -5 -29 -12 -11 -18
26 -38 73 -38 34 0 50 6 70 26 25 25 26 47 0 26 -7 -6 -26 -16 -42 -22 -30
-11 -30 -11 10 29 44 46 39 50 -20 15z"/>
<path d="M2009 2921 c-42 -37 -105 -82 -138 -100 -75 -40 -80 -64 -13 -69 84
-6 249 99 282 179 22 51 2 45 -67 -23 -64 -61 -133 -108 -133 -91 0 5 16 19
35 31 40 28 125 117 125 132 0 18 -14 9 -91 -59z"/>
<path d="M5510 2983 c0 -5 18 -19 40 -32 39 -22 40 -22 40 -3 0 13 -9 22 -24
26 -13 3 -31 9 -40 12 -9 3 -16 2 -16 -3z"/>
<path d="M3930 2976 c0 -4 9 -21 21 -37 23 -32 15 -37 -19 -13 -36 25 -28 -9
9 -41 24 -20 41 -25 68 -23 49 4 53 31 9 54 -18 9 -45 28 -60 42 -16 14 -28
22 -28 18z"/>
<path d="M4262 2939 c13 -23 46 -66 75 -95 28 -30 46 -54 40 -54 -12 0 -136
124 -159 160 -22 34 -33 19 -18 -25 35 -108 254 -256 298 -202 14 16 8 24 -59
74 -31 23 -85 74 -120 113 -35 38 -67 70 -72 70 -4 0 2 -19 15 -41z"/>
<path d="M2351 2913 c-19 -13 -42 -23 -52 -23 -21 0 -25 -20 -7 -38 25 -25 98
-11 98 19 0 13 -5 17 -17 12 -17 -6 -16 -5 1 15 28 32 15 41 -23 15z"/>
<path d="M1058 2902 c-104 -30 -100 -17 -62 -194 56 -265 186 -572 341 -803
75 -112 265 -345 281 -345 4 0 36 29 71 64 53 53 62 67 56 87 -5 18 8 9 49
-33 60 -61 64 -73 41 -117 -25 -49 -91 -57 -129 -16 -23 25 -23 25 -41 5 -18
-20 -17 -21 36 -70 86 -80 276 -220 381 -283 954 -568 2179 -382 2924 444 260
288 454 661 539 1036 31 137 31 141 -2 149 -16 3 -55 14 -87 25 -33 10 -64 19
-68 19 -5 0 7 -21 27 -47 20 -27 35 -56 33 -68 -3 -17 -9 -20 -50 -18 -26 2
-70 11 -98 22 -37 14 -52 16 -55 8 -2 -7 -16 -57 -30 -112 -31 -117 -99 -288
-157 -395 -22 -41 -83 -139 -134 -217 -78 -116 -117 -162 -218 -260 -343 -332
-708 -513 -1161 -578 -131 -19 -404 -19 -549 0 -355 47 -723 207 -1001 435
-86 71 -253 242 -323 331 -172 221 -324 550 -377 822 l-18 87 -38 0 c-50 0
-69 8 -69 31 0 23 -4 23 -112 -9z m481 -786 c17 -29 31 -65 31 -79 0 -50 -82
-117 -144 -117 -30 0 -74 39 -106 93 l-22 38 24 -6 c31 -8 183 88 174 110 -3
8 -1 15 4 15 5 0 22 -24 39 -54z m114 -161 c8 -18 -11 -31 -25 -17 -11 11 -3
32 12 32 4 0 10 -7 13 -15z m-68 -31 c10 -16 13 -29 7 -33 -60 -39 -102 -78
-98 -93 6 -25 -1 -22 -29 10 -27 30 -35 63 -11 43 19 -16 110 54 103 80 -7 27
8 23 28 -7z m3377 -59 c100 -80 97 -78 113 -65 23 19 18 2 -11 -36 -29 -37
-45 -44 -37 -16 3 13 -16 34 -68 75 -40 31 -78 57 -85 57 -27 0 -36 -38 -23
-94 l12 -54 58 -12 c32 -7 67 -10 79 -7 27 7 25 -1 -7 -35 -29 -30 -46 -37
-37 -14 3 9 -8 17 -36 24 l-42 10 7 -36 c9 -48 12 -52 33 -45 10 3 2 -10 -18
-32 -68 -74 -106 -103 -94 -72 3 9 -9 17 -33 25 -20 6 -39 10 -41 7 -2 -2 -1
-22 3 -44 5 -31 10 -39 23 -34 12 4 10 -2 -7 -20 -28 -31 -46 -36 -32 -9 8 16
7 40 -5 99 -3 16 -19 26 -64 41 -56 19 -61 20 -80 4 -21 -17 -20 -18 36 -100
48 -69 61 -81 78 -76 17 6 19 4 9 -7 -6 -8 -26 -23 -44 -33 -31 -18 -32 -18
-25 -1 5 13 -6 38 -36 81 -23 35 -43 62 -45 60 -1 -1 9 -39 23 -85 14 -45 24
-86 22 -91 -2 -5 -36 16 -75 46 -40 30 -73 52 -73 50 0 -3 18 -31 41 -63 31
-44 45 -57 62 -55 20 2 19 0 -8 -23 -33 -28 -55 -34 -35 -10 11 13 5 28 -41
95 -40 59 -60 80 -76 80 -15 0 -25 -8 -29 -23 -8 -33 75 -183 99 -179 26 4 20
-4 -17 -27 -40 -25 -65 -29 -47 -7 10 11 6 27 -19 76 -17 34 -33 60 -36 57 -3
-2 1 -41 9 -86 8 -44 11 -81 7 -81 -4 0 -38 28 -75 62 l-69 63 40 -72 c32 -60
42 -72 59 -67 17 4 16 2 -5 -15 -29 -24 -59 -29 -41 -8 17 21 -76 190 -101
184 -30 -8 -20 10 13 23 30 13 32 12 95 -51 35 -35 64 -57 63 -49 0 8 -6 49
-14 90 -7 41 -12 76 -12 77 21 21 111 72 120 67 7 -4 38 -27 70 -52 32 -24 60
-42 62 -40 3 2 -7 40 -20 84 l-25 79 43 38 c55 49 82 65 74 44 -4 -11 3 -19
25 -26 44 -16 48 -14 48 17 0 34 -14 57 -29 48 -26 -16 -7 10 45 62 31 32 54
49 51 40 -5 -14 3 -20 34 -28 23 -6 43 -10 45 -8 2 2 -1 21 -7 42 -7 26 -15
36 -25 32 -22 -9 -17 0 39 69 44 54 52 61 55 42 2 -12 26 -40 54 -62z m-3285
-57 c13 -12 23 -27 23 -34 0 -7 6 -14 13 -17 9 -3 9 -7 -2 -20 -19 -24 -32
-21 -25 7 7 30 -38 87 -56 70 -9 -9 -6 -22 9 -52 26 -51 26 -64 1 -87 -28 -25
-67 -11 -90 32 -9 18 -20 30 -24 26 -3 -3 -6 -2 -6 3 0 12 21 34 32 34 4 0 8
-12 8 -26 0 -36 17 -64 40 -64 30 0 32 16 9 61 -17 34 -19 47 -10 65 13 30 47
31 78 2z m251 -248 l24 -20 -30 -37 c-50 -65 -57 -84 -36 -100 28 -21 44 -16
81 24 25 28 32 44 28 61 -5 22 -5 22 20 6 14 -9 25 -20 25 -24 0 -5 -18 -31
-41 -60 -30 -38 -38 -56 -33 -73 6 -22 6 -22 -19 2 -15 13 -24 28 -21 32 3 5
-4 9 -15 9 -12 0 -30 9 -42 21 -26 26 -20 65 17 114 22 29 24 38 14 50 -18 21
1 18 28 -5z m192 -183 c-12 -18 -28 -47 -37 -66 -14 -32 -14 -36 3 -48 34 -25
50 -16 88 46 22 34 25 45 15 52 -7 4 -11 10 -8 13 3 3 17 -3 31 -12 l27 -17
-35 -55 c-23 -37 -32 -62 -29 -78 5 -21 4 -22 -15 -12 -12 6 -24 18 -27 26 -3
8 -13 14 -22 14 -57 0 -78 65 -40 126 13 21 18 41 14 55 -7 20 -6 20 25 4 l31
-16 -21 -32z m236 -46 c-15 -28 -15 -31 7 -47 l22 -16 -27 6 c-24 6 -30 2 -48
-33 -11 -22 -20 -52 -20 -67 0 -24 3 -26 30 -22 34 5 41 -7 10 -17 -30 -10
-70 20 -70 51 0 13 9 43 21 65 16 32 18 44 8 55 -9 11 -8 14 9 14 12 0 23 8
27 19 5 17 33 32 43 25 2 -1 -4 -16 -12 -33z m344 -95 c29 -11 31 -13 14 -18
-29 -7 -82 -173 -64 -201 10 -16 9 -18 -7 -13 -10 3 -30 8 -45 12 -32 7 -36
19 -10 26 13 4 26 31 45 94 25 83 26 90 10 102 -15 11 -15 12 3 11 10 0 35 -6
54 -13z m1263 -78 c8 -30 1 -35 -22 -14 -16 14 -26 16 -48 9 -15 -5 -29 -17
-31 -26 -3 -13 8 -17 55 -19 53 -3 58 -5 67 -30 13 -37 -14 -68 -60 -68 -18 0
-36 -5 -40 -12 -5 -8 -10 -6 -15 8 -15 38 -10 44 20 26 24 -13 33 -14 56 -4
44 20 29 47 -27 47 -50 1 -78 17 -78 45 0 31 23 43 111 59 4 0 9 -9 12 -21z
m-763 -18 c0 -11 -7 -20 -15 -20 -8 0 -15 9 -15 20 0 11 7 20 15 20 8 0 15 -9
15 -20z m310 -27 c0 -17 6 -23 23 -24 l22 0 -22 -9 c-21 -8 -22 -14 -16 -57
10 -81 39 -109 63 -62 7 11 14 18 17 16 2 -3 0 -15 -7 -26 -11 -21 -53 -28
-77 -13 -17 11 -33 58 -33 98 0 28 -4 34 -22 35 -17 1 -19 2 -5 6 11 3 17 14
17 32 0 33 20 57 32 38 4 -6 8 -22 8 -34z m-725 17 c6 -4 23 -8 38 -8 15 0 37
-8 48 -18 19 -17 20 -26 14 -78 -5 -43 -3 -61 7 -67 23 -14 3 -18 -39 -8 -39
10 -40 12 -23 29 18 18 36 102 25 120 -3 5 -17 10 -30 10 -29 0 -50 -29 -59
-82 -5 -29 -3 -39 11 -48 14 -9 9 -10 -26 -5 -55 7 -70 16 -44 26 27 10 49
108 27 125 -8 6 -14 14 -14 18 0 8 51 -3 65 -14z m989 -17 c2 -10 7 -34 11
-53 11 -59 16 -70 31 -70 9 0 12 -5 8 -11 -3 -6 -20 -9 -38 -6 -18 2 -40 -2
-53 -10 -47 -31 -103 16 -103 86 0 11 -9 26 -20 34 -20 14 -20 15 7 20 37 7
40 5 48 -50 9 -61 21 -83 45 -83 34 0 50 38 39 93 -9 38 -15 47 -32 48 -21 0
-21 1 -2 9 32 14 53 11 59 -7z m-759 -23 c17 -7 18 -9 2 -9 -18 -1 -17 -21 5
-81 l9 -25 25 40 c28 47 29 55 9 55 -8 0 -15 5 -15 10 0 6 8 10 18 9 20 -1 62
-17 47 -18 -6 -1 -30 -33 -54 -71 -23 -39 -46 -68 -50 -65 -4 2 -16 34 -26 70
-9 36 -24 73 -32 81 -13 12 -11 14 14 13 15 0 37 -4 48 -9z m185 -84 c0 -50 4
-76 13 -79 26 -9 0 -15 -42 -10 -33 5 -39 8 -27 15 24 13 23 123 -1 137 -15 8
-11 10 20 11 l37 0 0 -74z m194 53 c31 -25 34 -49 5 -49 -15 0 -20 5 -17 23 2
18 -2 23 -25 25 -16 2 -35 -2 -43 -9 -16 -13 -19 -72 -4 -100 13 -23 62 -26
80 -4 7 8 18 15 24 15 22 -1 -45 -50 -68 -50 -31 0 -72 34 -80 65 -8 33 12 76
44 92 35 18 53 16 84 -8z"/>
<path d="M1427 2049 c-76 -48 -78 -51 -64 -72 43 -64 202 22 183 99 -9 35 -31
30 -119 -27z"/>
<path d="M4717 1713 c-12 -15 -14 -27 -6 -66 5 -27 11 -52 13 -56 3 -4 33 -16
67 -26 60 -18 62 -18 75 0 17 23 17 58 1 104 -11 31 -18 36 -67 47 -70 17 -64
17 -83 -3z"/>
<path d="M1338 2904 c-10 -15 37 -217 78 -338 195 -568 660 -1031 1228 -1221
l101 -34 17 52 c16 48 16 57 1 127 -11 49 -16 131 -17 237 -1 152 -3 164 -24
190 -50 62 -73 102 -93 158 -11 32 -34 78 -50 101 -32 47 -55 104 -94 237 -24
83 -27 87 -54 87 -16 0 -34 7 -41 15 -7 8 -26 15 -43 15 -17 0 -40 9 -52 20
-17 16 -27 18 -51 12 -42 -12 -93 4 -106 33 -9 19 -19 25 -45 25 -27 0 -37 6
-51 30 -14 25 -21 29 -44 24 -21 -4 -34 1 -53 20 -18 18 -37 26 -60 26 -44 0
-83 18 -90 42 -7 19 -15 20 -55 9 -34 -10 -74 5 -89 33 -12 21 -16 22 -62 12
-44 -9 -52 -8 -78 12 -24 18 -38 21 -74 16 -55 -8 -85 7 -89 43 -2 16 -6 23
-10 17z"/>
<path d="M2119 2846 c-36 -35 -92 -76 -123 -91 -31 -15 -55 -33 -53 -39 2 -6
24 -11 49 -10 36 0 58 9 114 46 74 50 152 124 141 134 -4 4 -26 -11 -51 -34
-24 -22 -59 -48 -77 -57 -29 -14 -26 -8 24 37 51 47 71 79 50 78 -5 -1 -38
-29 -74 -64z"/>
<path d="M4136 2902 c-3 -5 20 -37 50 -71 72 -79 48 -80 -29 0 -65 67 -87 73
-38 10 72 -90 168 -161 221 -161 33 0 24 33 -16 55 -20 11 -69 55 -109 98 -40
43 -76 74 -79 69z"/>
<path d="M3864 2877 c7 -31 -1 -35 -20 -9 -12 15 -13 16 -14 0 0 -26 49 -78
74 -78 21 0 46 17 46 30 0 3 -21 23 -47 45 -45 38 -46 38 -39 12z"/>
<path d="M3770 2886 c0 -2 7 -22 15 -45 17 -49 1 -56 -20 -8 -14 31 -14 31
-15 6 0 -32 35 -79 58 -79 9 0 24 5 32 10 12 8 11 12 -8 32 -12 13 -27 38 -33
56 -6 18 -15 32 -20 32 -5 0 -9 -2 -9 -4z"/>
<path d="M4065 2819 c9 -16 32 -48 52 -70 20 -22 33 -42 30 -45 -6 -6 -86 70
-110 105 -26 40 -32 16 -6 -26 68 -111 177 -181 217 -141 20 20 14 32 -24 53
-20 11 -64 50 -99 87 -34 37 -66 68 -69 68 -4 0 1 -14 9 -31z"/>
<path d="M2208 2786 c-31 -29 -80 -63 -107 -76 -86 -40 -52 -88 42 -60 46 14
192 150 169 158 -7 2 -22 -8 -33 -22 -21 -26 -101 -86 -115 -86 -5 0 18 27 50
59 74 75 70 96 -6 27z"/>
<path d="M3690 2805 l-2 -40 -13 35 -13 35 -1 -32 c-1 -39 28 -73 63 -73 36 0
41 17 14 49 -13 16 -28 37 -35 47 -10 17 -12 14 -13 -21z"/>
<path d="M2385 2808 c-4 -10 -4 -26 0 -35 8 -17 8 -17 12 0 3 9 3 25 0 35 -4
16 -4 16 -12 0z"/>
<path d="M3580 2793 c0 -38 29 -73 61 -73 11 0 19 3 17 8 -2 4 -13 25 -23 47
-15 32 -20 36 -23 21 -4 -18 -5 -18 -18 5 l-13 24 -1 -32z"/>
<path d="M5160 2800 c0 -33 -27 -38 -102 -18 l-70 19 -20 -26 c-21 -27 -48
-31 -97 -14 -26 9 -35 8 -50 -5 -21 -19 -50 -20 -101 -5 -34 10 -39 9 -63 -15
-21 -21 -32 -25 -59 -19 -18 3 -41 10 -50 14 -23 12 -28 11 -28 -6 0 -24 -39
-38 -86 -31 -48 6 -62 -10 -16 -19 95 -18 222 -74 302 -131 110 -79 199 -236
200 -354 l0 -45 20 25 c63 81 183 354 226 514 28 106 29 122 9 130 -10 4 -15
-1 -15 -14z"/>
<path d="M2431 2770 c-2 -25 -2 -49 -1 -55 1 -5 5 -35 9 -65 4 -35 11 -54 19
-52 8 1 12 -14 12 -49 0 -31 4 -48 10 -44 7 4 8 36 4 87 -5 60 -4 79 4 74 7
-4 12 -17 12 -28 0 -20 29 -127 38 -138 9 -12 22 30 22 73 0 68 16 50 25 -29
7 -63 8 -65 31 -60 24 6 33 -7 14 -19 -5 -3 -10 -21 -9 -38 l1 -32 13 30 c14
29 14 27 15 -41 0 -82 26 -172 44 -154 6 6 10 39 9 76 0 36 3 62 8 58 5 -3 9
-11 9 -18 0 -11 68 -112 96 -145 9 -10 34 37 40 77 7 48 24 67 24 27 0 -37 16
-62 50 -80 16 -8 32 -15 36 -15 4 0 4 27 1 60 -3 40 -2 58 5 54 19 -12 -2 67
-27 104 l-23 34 -17 -36 c-14 -29 -15 -39 -5 -51 7 -9 9 -19 5 -23 -4 -4 -10
-1 -12 5 -3 8 -14 11 -27 7 -18 -4 -25 2 -39 30 -20 44 -29 45 -44 6 -15 -40
-41 -49 -62 -23 -60 78 -79 119 -61 137 7 7 10 4 10 -6 0 -9 8 -23 18 -30 10
-7 24 -28 31 -45 24 -59 47 -39 53 47 l3 34 40 -52 c21 -29 42 -52 46 -52 11
0 39 66 39 94 0 36 12 33 35 -10 19 -35 59 -74 76 -74 22 0 41 65 37 126 -4
71 4 75 21 9 7 -27 19 -49 32 -56 28 -14 39 1 39 56 0 36 -5 45 -46 79 -25 21
-46 36 -48 35 -1 -2 -7 -16 -14 -31 -25 -59 -63 -108 -82 -108 -13 0 -32 17
-52 45 -18 25 -35 45 -39 45 -4 0 -10 -12 -14 -27 -8 -32 -33 -63 -51 -63 -13
0 -59 50 -66 72 -3 8 -11 5 -26 -10 -30 -30 -38 -28 -51 10 -6 18 -23 45 -38
60 -24 25 -28 26 -47 13 -29 -21 -34 -19 -41 15 -7 31 -14 36 -30 21 -6 -5
-20 -12 -32 -15 -21 -7 -22 -4 -26 56 -3 55 -4 57 -6 18z m109 -145 c0 -8 -4
-15 -10 -15 -5 0 -10 7 -10 15 0 8 5 15 10 15 6 0 10 -7 10 -15z m560 -26 c0
-6 -4 -7 -10 -4 -5 3 -10 11 -10 16 0 6 5 7 10 4 6 -3 10 -11 10 -16z m-470 2
c0 -6 -4 -13 -10 -16 -5 -3 -10 1 -10 9 0 9 5 16 10 16 6 0 10 -4 10 -9z m100
-46 c0 -8 -4 -15 -10 -15 -5 0 -10 7 -10 15 0 8 5 15 10 15 6 0 10 -7 10 -15z
m130 -9 c0 -8 -4 -18 -10 -21 -5 -3 -10 3 -10 14 0 12 5 21 10 21 6 0 10 -6
10 -14z m140 -22 c0 -8 -4 -12 -10 -9 -5 3 -10 10 -10 16 0 5 5 9 10 9 6 0 10
-7 10 -16z m-323 -146 c-3 -7 -5 -2 -5 12 0 14 2 19 5 13 2 -7 2 -19 0 -25z
m120 -30 c-3 -7 -5 -2 -5 12 0 14 2 19 5 13 2 -7 2 -19 0 -25z"/>
<path d="M3530 2783 c0 -25 -15 -31 -23 -10 -2 6 -7 9 -11 6 -12 -12 6 -39 31
-45 33 -9 36 -3 19 37 -13 28 -15 30 -16 12z"/>
<path d="M3955 2790 c-4 -7 10 -38 34 -72 23 -33 40 -62 38 -65 -3 -2 -28 22
-56 53 -28 32 -54 55 -57 51 -12 -12 47 -98 86 -126 60 -44 96 -56 125 -43 14
7 25 16 25 21 0 5 -22 25 -48 44 -27 19 -66 56 -87 83 -22 27 -42 53 -46 57
-4 5 -10 3 -14 -3z"/>
<path d="M2298 2716 c-31 -28 -77 -62 -102 -75 -49 -24 -53 -30 -34 -49 18
-18 74 -14 119 8 53 27 119 95 119 121 0 19 -8 14 -56 -31 -64 -60 -85 -61
-28 0 45 47 57 67 47 73 -5 3 -34 -18 -65 -47z"/>
<path d="M3357 2753 c-13 -12 -7 -23 13 -23 13 0 18 5 14 15 -7 16 -17 19 -27
8z"/>
<path d="M3416 2735 c5 -20 2 -25 -21 -31 l-26 -6 28 -18 c30 -18 83 -75 83
-90 0 -4 -11 -11 -25 -14 -14 -4 -25 -10 -25 -16 0 -13 37 -22 59 -15 10 3 31
1 46 -5 15 -6 29 -9 31 -8 7 8 -83 111 -114 130 l-36 22 35 9 c19 5 36 10 38
12 6 6 -53 54 -67 55 -8 0 -10 -8 -6 -25z"/>
<path d="M3195 2714 c-4 -25 -2 -39 10 -50 20 -20 20 -41 0 -24 -12 10 -15 7
-21 -14 -3 -13 -3 -29 0 -35 8 -12 86 -35 93 -27 3 3 -2 26 -11 51 -10 24 -15
49 -11 55 7 12 -23 67 -41 74 -7 3 -15 -9 -19 -30z"/>
<path d="M3840 2743 c0 -4 12 -26 26 -46 37 -55 23 -56 -25 -1 -47 54 -52 50
-15 -13 31 -54 97 -103 136 -103 16 0 28 4 26 9 -5 15 -148 163 -148 154z"/>
<path d="M3263 2728 c2 -7 11 -12 20 -12 9 1 18 -4 21 -12 3 -8 0 -11 -11 -7
-11 4 -14 1 -11 -12 3 -20 65 -62 75 -52 10 11 -6 53 -31 80 -25 27 -71 38
-63 15z"/>
<path d="M3664 2675 l6 -30 -19 23 c-27 31 -34 28 -16 -8 16 -32 91 -88 102
-76 3 3 -3 16 -14 29 -12 12 -31 38 -43 57 l-22 35 6 -30z"/>
<path d="M3480 2676 c0 -2 21 -26 48 -54 42 -45 91 -72 129 -72 25 0 4 17 -29
24 -20 4 -50 25 -80 56 -41 43 -68 61 -68 46z"/>
<path d="M3730 2674 c0 -6 14 -30 30 -53 34 -47 88 -78 117 -66 17 7 17 7 -1
18 -11 7 -34 25 -52 40 -18 15 -37 26 -42 25 -5 -2 -19 8 -30 22 -12 14 -21
20 -22 14z"/>
<path d="M3570 2656 c0 -15 67 -73 74 -65 5 4 -61 79 -69 79 -3 0 -5 -7 -5
-14z"/>
<path d="M3381 2643 c0 -10 -1 -27 -3 -38 -3 -17 2 -20 32 -17 19 2 37 6 39 8
6 5 -50 64 -60 64 -4 0 -8 -8 -8 -17z"/>
<path d="M4263 2635 c-15 -17 -32 -25 -55 -25 -22 0 -41 -9 -57 -25 -25 -27
-51 -31 -99 -14 -25 8 -35 7 -56 -6 -16 -11 -37 -15 -53 -12 -15 3 -37 -2 -50
-10 -13 -9 -32 -13 -43 -10 -12 3 -23 -1 -29 -10 -5 -11 -17 -14 -35 -11 -25
5 -26 3 -26 -38 0 -29 -5 -46 -16 -52 -25 -14 -15 -84 14 -98 30 -15 30 -27 0
-35 -15 -3 -22 -12 -20 -22 2 -13 -4 -17 -27 -17 -24 0 -30 -5 -35 -27 -11
-49 -23 -163 -18 -168 9 -9 50 -5 109 10 31 8 84 15 118 16 l60 1 -59 19 c-81
26 -83 33 -8 26 77 -8 133 -35 194 -95 l47 -45 -15 48 c-23 78 -10 76 31 -5
28 -55 58 -95 117 -152 43 -43 75 -78 71 -78 -12 0 -82 48 -117 79 -33 29 -32
28 37 -84 60 -98 97 -137 148 -160 l39 -18 52 42 c118 93 141 117 134 143 -28
96 -46 185 -52 253 -6 57 -10 71 -14 50 -5 -28 -7 -26 -29 34 -27 75 -88 145
-153 179 -34 17 -38 22 -20 22 31 0 80 -26 119 -62 l31 -30 17 26 c24 36 18
194 -9 249 -10 21 -16 40 -13 43 7 7 115 -38 166 -70 64 -41 131 -114 158
-173 42 -91 40 -228 -4 -315 -23 -46 -7 -32 41 36 41 57 46 69 46 118 0 165
-93 315 -254 407 -79 45 -223 96 -228 80 -2 -5 -17 -4 -35 3 -49 18 -51 2 -6
-39 60 -56 86 -114 90 -203 l3 -75 -23 80 c-24 85 -64 165 -81 165 -6 0 -27
18 -46 40 l-35 40 -22 -25z m-274 -478 c24 -26 41 -50 38 -53 -8 -8 -86 65
-103 97 -19 39 -17 60 4 29 9 -14 37 -46 61 -73z"/>
<path d="M2353 2612 c-29 -21 -52 -40 -53 -44 0 -16 49 -19 83 -5 31 14 35 19
34 51 -1 20 -3 36 -6 35 -4 0 -29 -17 -58 -37z"/>
<path d="M3298 2584 l5 -47 -44 6 c-24 3 -54 9 -66 12 -17 6 -22 2 -27 -22 -4
-15 -14 -37 -22 -48 -12 -17 -18 -18 -44 -8 -29 11 -30 10 -39 -24 -7 -25 -7
-43 1 -57 12 -24 59 -76 68 -76 14 0 30 53 30 100 0 28 2 50 5 50 3 0 24 -14
47 -30 48 -35 58 -29 58 34 0 33 3 37 18 30 9 -4 36 -9 60 -12 45 -4 57 13 27
38 -8 7 -15 23 -15 35 0 21 -41 65 -60 65 -4 0 -5 -21 -2 -46z m42 -65 c0 -6
-4 -7 -10 -4 -5 3 -10 11 -10 16 0 6 5 7 10 4 6 -3 10 -11 10 -16z m-126 -5
c4 -10 1 -14 -6 -12 -15 5 -23 28 -10 28 5 0 13 -7 16 -16z m-117 -76 c-3 -8
-6 -5 -6 6 -1 11 2 17 5 13 3 -3 4 -12 1 -19z"/>
<path d="M3692 2561 c7 -12 16 -21 20 -21 5 0 8 -4 8 -9 0 -4 -12 -6 -27 -3
-23 4 -26 2 -15 -9 21 -23 13 -38 -23 -45 -19 -3 -32 -11 -29 -16 3 -5 13 -7
21 -3 9 3 25 -2 35 -12 19 -17 19 -17 13 10 -7 26 7 38 20 17 11 -18 25 -10
25 14 0 38 -17 74 -40 86 -19 10 -20 10 -8 -9z"/>
<path d="M3755 2561 c-3 -6 3 -15 14 -20 24 -14 31 -14 31 -1 0 14 -38 32 -45
21z"/>
<path d="M2420 2540 c-17 -11 -8 -23 14 -18 9 2 12 8 8 15 -5 8 -13 9 -22 3z"/>
<path d="M3444 2521 c29 -33 76 -58 121 -67 39 -7 40 -6 23 13 -26 29 -23 33
24 33 40 0 41 0 23 20 -22 24 -37 26 -28 4 5 -15 -2 -16 -68 -9 -41 4 -83 12
-94 18 -20 10 -20 10 -1 -12z m76 -26 c11 -13 10 -14 -4 -9 -9 3 -16 10 -16
15 0 13 6 11 20 -6z"/>
<path d="M3415 2480 c2 -31 -4 -37 -21 -20 -7 7 -20 7 -34 2 -22 -8 -21 -10
19 -25 52 -21 101 -22 101 -3 0 16 -47 76 -59 76 -4 0 -7 -13 -6 -30z"/>
<path d="M4554 2488 c15 -53 17 -154 4 -198 -13 -42 -12 -48 9 -85 12 -22 25
-64 28 -95 7 -67 24 -187 31 -218 l5 -23 37 22 c58 35 112 90 139 143 23 44
25 59 21 132 -8 145 -75 246 -210 315 -69 35 -72 35 -64 7z"/>
<path d="M2546 2475 c-10 -8 -23 -16 -28 -17 -4 -2 1 -41 13 -88 26 -101 144
-344 202 -413 l40 -49 -7 -146 c-6 -131 -5 -154 13 -209 11 -34 27 -75 35 -92
19 -36 20 -41 4 -41 -15 0 -50 -101 -40 -112 4 -4 41 -14 82 -23 41 -8 86 -17
98 -20 23 -6 24 -5 18 47 -3 29 -3 47 0 41 13 -29 19 -8 21 71 1 54 7 95 17
114 20 39 20 53 0 27 -15 -19 -15 -18 -7 15 4 19 8 74 8 123 -1 48 0 87 2 87
11 0 33 -68 34 -107 1 -48 1 -48 9 -13 5 19 12 61 15 92 l7 57 -39 -5 c-33 -4
-36 -3 -19 8 42 29 71 57 65 63 -4 3 -27 8 -50 10 -67 5 -161 25 -189 40 -47
25 -117 109 -146 175 -15 36 -31 67 -34 70 -3 3 -16 40 -30 82 -21 64 -28 77
-42 72 -16 -5 -17 0 -11 41 3 26 1 55 -5 68 -6 12 -12 27 -14 34 -2 8 -8 8
-22 -2z m301 -623 c-17 -2 -37 4 -48 14 -30 27 -12 33 33 10 42 -21 43 -21 15
-24z"/>
<path d="M3290 2440 c0 -20 7 -34 23 -44 26 -17 77 -31 77 -21 0 16 -22 45
-35 45 -7 0 -22 11 -33 25 -26 32 -32 32 -32 -5z"/>
<path d="M3505 2431 c5 -18 2 -21 -22 -21 -27 -1 -27 -1 -9 -15 11 -8 40 -15
65 -15 l44 0 -24 26 c-13 14 -32 30 -42 36 -16 8 -18 7 -12 -11z"/>
<path d="M3180 2401 c0 -30 31 -64 68 -76 20 -6 22 -3 22 27 -1 29 -6 36 -45
55 l-45 22 0 -28z"/>
<path d="M3585 2410 c19 -21 45 -27 45 -10 0 11 -33 30 -51 30 -8 0 -5 -7 6
-20z"/>
<path d="M3414 2377 c2 -42 22 -61 57 -55 19 3 18 7 -19 48 l-41 45 3 -38z"/>
<path d="M3010 2384 c-26 -7 -13 -80 17 -104 33 -26 40 -25 47 6 5 17 -1 38
-16 65 -12 21 -24 38 -27 38 -3 -1 -13 -3 -21 -5z m24 -30 c4 -10 1 -14 -6
-12 -15 5 -23 28 -10 28 5 0 13 -7 16 -16z"/>
<path d="M3290 2341 c0 -35 14 -61 33 -61 5 0 7 11 5 25 -6 30 -5 31 32 3 16
-11 42 -23 57 -24 27 -3 92 -15 161 -30 39 -8 41 5 5 29 l-28 18 33 -5 c17 -3
47 -9 65 -13 l32 -6 -29 37 c-30 40 -27 66 4 29 15 -19 70 -50 70 -39 0 2 -21
19 -46 39 -44 34 -46 35 -79 21 -19 -8 -50 -14 -70 -14 -32 0 -35 -2 -25 -19
15 -29 14 -31 -34 -31 -30 0 -55 8 -80 25 -21 14 -53 32 -72 40 l-34 14 0 -38z
m320 -11 c0 -5 -2 -10 -4 -10 -3 0 -8 5 -11 10 -3 6 -1 10 4 10 6 0 11 -4 11
-10z"/>
<path d="M3180 2315 c7 -8 17 -15 22 -15 6 0 5 7 -2 15 -7 8 -17 15 -22 15 -6
0 -5 -7 2 -15z"/>
<path d="M3150 2289 c0 -6 5 -20 12 -32 6 -12 14 -87 18 -167 6 -125 10 -153
33 -202 14 -31 37 -64 51 -74 l27 -17 -22 -23 c-20 -22 -23 -34 -22 -117 1
-72 7 -109 27 -171 19 -55 24 -82 16 -91 -12 -15 -50 -122 -50 -143 0 -13 19
-14 132 -8 73 4 136 10 139 14 4 4 -4 40 -17 81 -26 77 -25 119 1 141 12 10
13 4 9 -37 -3 -26 -1 -59 4 -73 9 -24 10 -23 17 15 5 23 3 77 -4 127 -19 135
1 235 83 396 20 41 24 65 28 179 l4 131 -76 12 c-41 7 -92 14 -113 15 -20 2
-49 10 -63 20 -24 16 -26 16 -39 -1 -10 -15 -16 -16 -28 -6 -12 10 -16 10 -20
0 -3 -10 -12 -9 -38 5 -21 12 -35 15 -37 8 -6 -17 -26 -13 -40 9 -13 21 -32
27 -32 9z m103 -386 c19 -51 5 -57 -23 -11 -33 55 -44 132 -32 226 6 45 15 88
19 95 4 7 11 -51 14 -128 4 -90 12 -155 22 -182z m346 187 c25 -116 5 -198
-63 -258 -51 -45 -65 -40 -23 8 44 52 57 98 57 209 0 50 4 91 9 91 5 0 14 -23
20 -50z m-183 -286 c-23 -16 -82 -19 -91 -4 -4 6 8 10 27 11 18 0 42 4 53 8
28 12 34 2 11 -15z"/>
<path d="M3255 2290 c3 -5 10 -10 16 -10 5 0 9 5 9 10 0 6 -7 10 -16 10 -8 0
-12 -4 -9 -10z"/>
<path d="M3000 2224 c0 -51 -14 -66 -49 -53 -23 9 -22 6 13 -30 45 -46 56 -41
56 27 0 51 15 54 34 7 19 -45 36 -45 36 -1 0 27 -5 36 -22 41 -13 4 -33 17
-45 28 l-23 20 0 -39z"/>
<path d="M3097 2238 c-4 -15 3 -30 25 -52 30 -30 30 -30 23 -6 -21 78 -38 98
-48 58z"/>
<path d="M2730 2228 c0 -27 49 -115 75 -136 39 -31 45 -28 45 24 0 26 -4 43
-10 39 -5 -3 -7 -12 -3 -20 5 -16 -5 -20 -22 -7 -5 4 -21 29 -35 56 -24 49
-50 71 -50 44z"/>
<path d="M2870 2198 c0 -56 18 -120 31 -112 6 3 24 -6 40 -22 l29 -28 0 25 c0
14 -11 36 -25 49 -13 12 -32 45 -40 71 -22 64 -35 71 -35 17z"/>
<path d="M4511 2223 c7 -12 15 -20 18 -17 3 2 -3 12 -13 22 -17 16 -18 16 -5
-5z"/>
<path d="M2711 2190 c-1 -14 8 -43 19 -65 11 -22 20 -46 20 -55 0 -9 12 -27
27 -41 20 -18 25 -20 20 -6 -9 24 2 21 35 -10 23 -22 30 -24 43 -13 14 12 18
11 26 -1 5 -8 9 -17 9 -22 0 -11 63 -47 83 -47 10 0 17 8 17 19 0 20 -23 45
-33 35 -3 -3 -24 13 -47 36 l-41 41 -17 -21 -18 -22 -51 46 c-36 32 -58 63
-72 99 -15 39 -20 46 -20 27z m274 -230 c3 -5 1 -10 -4 -10 -6 0 -11 5 -11 10
0 6 2 10 4 10 3 0 8 -4 11 -10z"/>
<path d="M4541 2154 c0 -11 3 -14 6 -6 3 7 2 16 -1 19 -3 4 -6 -2 -5 -13z"/>
<path d="M3110 2115 c-5 -14 -16 -25 -25 -25 -20 0 -19 -13 3 -33 32 -29 42
-21 42 33 0 55 -6 63 -20 25z"/>
<path d="M2990 2044 c0 -8 14 -29 31 -46 25 -25 33 -29 40 -17 12 20 11 41 -6
63 -12 16 -17 17 -30 6 -10 -8 -15 -9 -15 -1 0 6 -4 11 -10 11 -5 0 -10 -7
-10 -16z"/>
<path d="M3770 2029 c-36 -10 -77 -19 -91 -19 -29 0 -27 8 -45 -142 -8 -70 2
-128 21 -128 8 0 15 -4 15 -10 0 -5 14 -25 31 -45 34 -39 32 -60 -2 -29 l-22
19 17 -34 c24 -45 14 -73 -41 -124 -90 -81 -105 -99 -91 -109 10 -8 10 -11 1
-15 -15 -5 -18 -119 -5 -127 17 -10 67 11 77 32 11 26 30 29 39 6 4 -11 13
-13 28 -8 49 15 77 45 99 106 25 67 62 118 86 118 9 0 31 11 49 25 l34 26 -6
73 c-5 52 -2 95 10 148 9 42 14 87 11 101 -5 18 1 36 19 64 29 42 34 73 11 73
-8 0 -15 -5 -15 -11 0 -17 -111 -129 -128 -129 -11 0 -7 10 15 33 34 35 63 87
63 112 0 22 -97 19 -180 -6z m159 -251 l-1 -83 -20 63 c-19 60 -19 64 -2 83 9
10 19 19 21 19 1 0 3 -37 2 -82z"/>
<path d="M3100 2001 c0 -5 9 -15 19 -20 14 -8 20 -7 25 4 3 8 1 15 -3 15 -5 0
-16 3 -25 6 -9 3 -16 1 -16 -5z"/>
<path d="M4043 1963 c-17 -25 -46 -138 -59 -231 -4 -25 -1 -67 7 -99 l13 -56
-66 -61 c-43 -39 -76 -81 -93 -116 -15 -30 -34 -63 -43 -72 -8 -10 -13 -18
-11 -18 16 0 223 75 280 101 l70 32 -30 31 c-84 89 -82 199 6 277 19 17 46 35
60 40 17 6 23 14 19 25 -10 25 -119 174 -128 174 -4 0 -15 -12 -25 -27z"/>
<path d="M2890 1950 c0 -5 5 -10 11 -10 5 0 7 5 4 10 -3 6 -8 10 -11 10 -2 0
-4 -4 -4 -10z"/>
<path d="M3080 1950 c0 -5 -9 -10 -20 -10 -11 0 -20 -4 -20 -10 0 -13 77 -13
85 -1 3 6 -3 15 -14 20 -25 14 -31 14 -31 1z"/>
<path d="M3155 1950 c-3 -5 -1 -10 4 -10 6 0 11 5 11 10 0 6 -2 10 -4 10 -3 0
-8 -4 -11 -10z"/>
<path d="M4759 1933 c-8 -9 -41 -33 -74 -54 -44 -28 -55 -40 -43 -44 9 -4 25
-2 36 4 19 10 109 111 99 111 -2 0 -11 -8 -18 -17z"/>
<path d="M3142 1877 c-17 -17 -22 -36 -22 -73 0 -47 -19 -116 -74 -269 -17
-48 -26 -91 -26 -136 0 -60 13 -124 29 -140 3 -4 42 -10 87 -13 l80 -7 17 78
c21 97 21 124 1 210 -12 51 -15 95 -10 176 5 97 3 112 -16 152 -25 51 -36 55
-66 22z"/>
<path d="M3581 1764 c-22 -77 -32 -160 -29 -234 l3 -75 58 56 c69 66 73 94 27
176 -16 29 -30 61 -30 70 0 10 -4 24 -9 32 -7 11 -12 4 -20 -25z"/>
<path d="M4175 1768 c-32 -17 -76 -61 -91 -90 -30 -57 -8 -154 45 -202 14 -13
28 -16 48 -11 l27 6 -32 26 c-43 33 -62 72 -62 128 0 56 23 93 74 120 36 20
47 35 24 35 -7 0 -22 -6 -33 -12z"/>
<path d="M4205 1705 c-44 -23 -65 -53 -65 -94 0 -41 17 -71 59 -101 l30 -20
51 30 c29 17 68 42 87 55 l35 23 -40 21 c-22 11 -55 38 -74 61 -39 45 -41 46
-83 25z"/>
<path d="M1736 1620 c-30 -34 -35 -44 -26 -60 20 -37 79 -20 104 29 13 25 13
31 0 50 -22 30 -37 26 -78 -19z"/>
</g>
</svg>
